<svg width="1440" height="900" viewBox="0 0 1440 900" fill="none" xmlns="http://www.w3.org/2000/svg">
<rect width="1440" height="900" fill="white"/>
<g clip-path="url(#clip0)">
<path fill-rule="evenodd" clip-rule="evenodd" d="M-159.187 986.317C-25.69 1050.1 79.887 995.292 133.311 852.075C186.734 708.854 29.9464 675.083 50.4514 499.522C70.9564 323.961 231.824 216.625 256.646 120.274C281.469 23.9237 149.173 -62.7276 202.418 -182.947C255.665 -303.167 285.842 -336.737 285.548 -418.04C285.253 -499.343 201.239 -508.157 201.239 -508.157C201.239 -508.157 -368.397 687.949 -374.02 853.284C-376.951 939.45 -159.187 986.317 -159.187 986.317Z" fill="#E53C38"/>
<path fill-rule="evenodd" clip-rule="evenodd" d="M-110.672 116.565C-118.906 277.769 -36.4145 369.224 102.982 375.965C242.38 382.706 217.259 207.463 372.736 168.766C528.213 130.068 674.05 261.262 764.025 254.189C853.995 247.118 881.977 79.3383 1001.86 93.7675C1121.75 108.197 1160.47 128.209 1229.12 100.067C1297.78 71.9247 1276.46 -18.8005 1276.46 -18.8005C1276.46 -18.8005 70.0039 -203.989 -71.7287 -153.258C-145.594 -126.818 -110.672 116.565 -110.672 116.565Z" fill="#FBEBD8"/>
<path fill-rule="evenodd" clip-rule="evenodd" d="M697.685 780.798C697.685 780.798 762.442 687.287 859.635 636.532C956.835 585.777 1030.7 710.953 1136.85 652.147C1243 593.34 1209.37 384.031 1293.62 314.983C1377.88 245.937 1467.6 206.932 1526.52 351.997C1585.44 497.062 1700.05 836.217 1519.9 981.567C1381.82 1092.97 959.542 1016.43 757.095 979.867C554.656 943.3 697.685 780.798 697.685 780.798Z" fill="#FFFAEF"/>
<path d="M-62.3237 110.869C-62.3237 110.869 25.9519 301.537 126.799 321.811C227.647 342.085 174.564 121.654 271.594 96.1233C368.625 70.5921 426.074 267.594 514.921 219.688C553.581 198.842 585.713 125.09 697.918 108.075C810.127 91.06 869.97 171.117 963.742 151.627C1057.51 132.136 1120.65 -10.4584 1120.65 -10.4584" stroke="black" stroke-width="4" stroke-linejoin="round"/>
<path d="M473.243 935.283C473.243 935.283 468.149 671.748 644.624 630.577C821.1 589.406 1043.03 819.058 1179.14 770.596C1315.25 722.133 1099.19 531.105 1189.06 436.728C1278.94 342.351 1538.65 393.087 1538.65 393.087" stroke="black" stroke-width="4" stroke-linejoin="round"/>
</g>
<defs>
<clipPath id="clip0">
<rect width="1440" height="900" fill="white"/>
</clipPath>
</defs>
</svg>
