<svg width="1000" height="1000" viewBox="0 0 1000 1000" fill="none" xmlns="http://www.w3.org/2000/svg">
<g clip-path="url(#clip0)">
<path d="M141 150C83.5 150 62.8333 -1.66666 59 -78.5C47.3333 -131.833 152.4 -181.2 156 -192C159.6 -202.8 310.667 -202.667 327.5 -204L716.081 -249L1036.08 -108.5C1035.41 -69 1038.6 -118.3 1021 -69.5C1003.4 -20.7 940 36 832.5 36C725 36 732.5 113 634 113C535.5 113 383.604 41.1382 300.5 77.5C245.595 101.523 198.5 150 141 150Z" fill="#E53C38"/>
<path d="M178.5 955.727C45.3 916.927 -11.1667 992.667 -15 1069.5C151 1141.5 189.481 1130.7 193.081 1141.5C196.681 1152.3 231.248 1157.67 248.081 1159L742.582 1262.73L910.081 1215.73C909.415 1176.23 959.1 1190.3 941.5 1141.5C923.9 1092.7 1004.5 1069.5 891.5 1069.5C778.5 1069.5 811 968.953 723 955.727C635 942.5 592.5 874 472 874C390.322 874 268.058 988.946 178.5 955.727Z" fill="#E53C38"/>
</g>
<defs>
<clipPath id="clip0">
<rect width="1000" height="1000" fill="white"/>
</clipPath>
</defs>
</svg>
