<svg id="prometeo-logo-1" xmlns="http://www.w3.org/2000/svg" xmlns:xlink="http://www.w3.org/1999/xlink" viewBox="0 0 400 400" shape-rendering="geometricPrecision" text-rendering="geometricPrecision"><style><![CDATA[#prometeo-logo-1-path-3_tr {animation: prometeo-logo-1-path-3_tr__tr 1500ms linear infinite normal forwards}@keyframes prometeo-logo-1-path-3_tr__tr { 0% {transform: translate(200px,397.257355px) rotate(0deg);animation-timing-function: cubic-bezier(0.445000,0.050000,0.550000,0.950000)} 66.666667% {transform: translate(200px,397.257355px) rotate(360deg)} 100% {transform: translate(200px,397.257355px) rotate(360deg)} }#prometeo-logo-1-path-2_tr {animation: prometeo-logo-1-path-2_tr__tr 1500ms linear infinite normal forwards}@keyframes prometeo-logo-1-path-2_tr__tr { 0% {transform: translate(200px,397.257355px) rotate(0deg);animation-timing-function: cubic-bezier(0.445000,0.050000,0.550000,0.950000)} 60% {transform: translate(200px,397.257355px) rotate(360deg)} 100% {transform: translate(200px,397.257355px) rotate(360deg)} }#prometeo-logo-1-path-1_tr {animation: prometeo-logo-1-path-1_tr__tr 1500ms linear infinite normal forwards}@keyframes prometeo-logo-1-path-1_tr__tr { 0% {transform: translate(196.777992px,400px) rotate(0deg);animation-timing-function: cubic-bezier(0.390000,0.575000,0.565000,1)} 66.666667% {transform: translate(196.777992px,400px) rotate(360deg)} 100% {transform: translate(196.777992px,400px) rotate(360deg)} }]]></style><g id="prometeo-logo-1-g1" clip-path="url(#prometeo-logo-1-clip0)"><g id="prometeo-logo-1-g2" transform="matrix(0.30000000000000 0 0 0.30000000000000 139.99999999999994 135.83965700000002)"><rect id="prometeo-logo-1-rect1" width="400" height="400" rx="0" ry="0" fill="rgb(255,255,255)" stroke="none" stroke-width="1"/><g id="prometeo-logo-1-path-3_tr" transform="translate(200,397.257355) rotate(0)"><path id="prometeo-logo-1-path-3" d="M58.575700,292.916000L92.084400,113.382000C92.948900,108.750000,99.154100,107.775000,101.397000,111.919000L237.001000,362.468000C238.157000,364.604000,237.611000,367.262000,235.707000,368.769000L218.885000,382.082000L200.239000,396.240000C198.473000,397.580000,196.036000,397.598000,194.251000,396.284000L60.526900,297.860000C58.981800,296.723000,58.223700,294.802000,58.575700,292.916000Z" transform="translate(-200,-397.257355)" fill="rgb(169,0,17)" stroke="none" stroke-width="1"/></g><g id="prometeo-logo-1-path-2_tr" transform="translate(200,397.257355) rotate(0)"><path id="prometeo-logo-1-path-2" d="M65.155800,296.224000L194.852000,10.248400C196.642000,6.302290,202.261000,6.345320,203.990000,10.318400L328.431000,296.270000C329.352000,298.385000,328.706000,300.856000,326.867000,302.249000L200.275000,398.219000C198.495000,399.569000,196.035000,399.573000,194.249000,398.230000L66.703600,302.284000C64.831600,300.876000,64.188200,298.357000,65.155800,296.224000Z" transform="translate(-200,-397.257355)" fill="rgb(209,29,39)" stroke="none" stroke-width="1"/></g><g id="prometeo-logo-1-path-1_tr" transform="translate(196.777992,400) rotate(0)"><path id="prometeo-logo-1-path-1" d="M341.280000,289.332000L302.356000,118.068000C301.345000,113.617000,295.388000,112.738000,293.133000,116.706000L153.651000,362.214000C152.418000,364.384000,152.974000,367.131000,154.954000,368.651000L173,382.500000L194.514000,398.306000C196.288000,399.609000,198.705000,399.599000,200.468000,398.282000L339.398000,294.445000C340.980000,293.262000,341.718000,291.258000,341.280000,289.332000Z" transform="translate(-196.777992,-400)" fill="rgb(238,91,87)" stroke="none" stroke-width="1"/></g></g><clipPath id="prometeo-logo-1-clip0"><rect id="prometeo-logo-1-rect2" width="400" height="400" rx="0" ry="0" fill="rgb(255,255,255)" stroke="none" stroke-width="1"/></clipPath></g></svg>