<svg width="400" height="400" viewBox="0 0 400 400" fill="none" xmlns="http://www.w3.org/2000/svg">
<g clip-path="url(#clip0)">
<rect width="400" height="400" fill="white"/>
<path d="M58.5757 292.916L92.0844 113.382C92.9489 108.75 99.1541 107.775 101.397 111.919L237.001 362.468C238.157 364.604 237.611 367.262 235.707 368.769L218.885 382.082L200.239 396.24C198.473 397.58 196.036 397.598 194.251 396.284L60.5269 297.86C58.9818 296.723 58.2237 294.802 58.5757 292.916Z" fill="#A90011"/>
<path d="M65.1558 296.224L194.852 10.2484C196.642 6.30229 202.261 6.34532 203.99 10.3184L328.431 296.27C329.352 298.385 328.706 300.856 326.867 302.249L200.275 398.219C198.495 399.569 196.035 399.573 194.249 398.23L66.7036 302.284C64.8316 300.876 64.1882 298.357 65.1558 296.224Z" fill="#D11D27"/>
<path d="M341.28 289.332L302.356 118.068C301.345 113.617 295.388 112.738 293.133 116.706L153.651 362.214C152.418 364.384 152.974 367.131 154.954 368.651L173 382.5L194.514 398.306C196.288 399.609 198.705 399.599 200.468 398.282L339.398 294.445C340.98 293.262 341.718 291.258 341.28 289.332Z" fill="#EE5B57"/>
</g>
<defs>
<clipPath id="clip0">
<rect width="400" height="400" fill="white"/>
</clipPath>
</defs>
</svg>
